<svg width="260" height="99" viewBox="0 0 260 99" fill="none" xmlns="http://www.w3.org/2000/svg">
<path d="M254.411 27.251C252.156 27.0833 249.316 26.3444 247.208 25.6469C246.543 25.4284 246.958 25.0733 246.508 24.9047C245.633 24.5761 244.738 24.6221 243.868 24.2608C243.576 24.1384 244.077 23.5482 243.768 23.4348C242.115 22.8259 240.454 22.6897 238.742 22.2243C230.33 19.9334 221.969 18.1173 213.387 16.2593C210.555 15.6462 207.195 14.4272 204.197 14.1701C203.849 14.141 203.951 14.7577 203.878 14.794C202.724 15.3464 203.271 14.2341 202.625 13.9601C201.587 13.5221 200.509 13.1722 199.384 12.89C197.779 12.4829 196.16 12.279 194.658 12.2286C193.585 12.1974 194.505 13.4863 193.526 12.7105C193.458 12.6581 193.795 12.0661 193.514 11.9672C192.872 11.7417 191.602 11.7308 191.099 11.6404C190.109 11.4595 189.959 11.4553 189.019 11.3884C187.739 11.2941 186.238 10.9256 184.852 11.0551C184.559 11.0848 184.938 11.7294 184.477 11.8356C184.026 11.9396 182.785 11.8969 182.381 11.7575C181.966 11.6162 182.126 11.1079 182.049 10.9941C181.4 10.0312 180.03 11.4499 179.855 11.4968C176.6 12.2622 173.7 11.8622 170.658 12.4934C168.349 12.9767 166.015 13.8983 163.963 14.6152C161.523 15.469 159.337 16.1023 157.344 17.4442C157.336 17.4501 157.329 17.4566 157.323 17.4637C157.221 17.6073 157.772 18.0717 157.59 18.2035C155.638 19.616 154.475 21.8339 153.22 25.1336C153.094 25.4609 152.546 24.8759 152.38 25.1998C151.945 26.0619 151.351 27.1955 150.973 28.3882C150.529 29.624 150.897 31.0496 152.599 31.3205C152.616 32.3624 152.93 33.5234 153.022 34.6806C153.024 34.6912 153.026 34.7019 153.027 34.7125C153.175 35.6053 152.127 35.3526 152.963 36.0148C153.151 36.1599 153.494 35.5539 153.735 35.7942C154.747 36.8016 155.596 38.1031 156.809 38.8187C157.054 38.9598 157.389 38.4958 157.515 38.4749C158.527 38.3048 158.43 39.9978 158.571 40.2293C159.555 41.9301 160.909 42.4126 162.427 43.1574C162.786 43.329 162.684 42.4441 163.032 42.5782C164.816 43.2703 166.684 43.892 168.545 44.5547C168.961 44.7032 168.457 45.2756 168.656 45.3795C169.544 45.8223 169.912 44.6328 170.758 44.9811C170.943 45.052 170.788 45.5952 170.817 45.659C171.288 46.6603 171.873 45.3341 172.006 45.3108C173.319 45.0777 174.245 45.7336 175.487 46.0387C175.345 46.1256 175.029 46.3765 174.984 46.395C174.941 46.4138 174.443 45.8913 174.32 46.032C174.258 46.1154 174.35 45.7826 174.332 45.4084C174.326 45.0256 174.27 44.5677 174.168 44.118C173.718 42.1403 172.422 39.8543 170.881 37.9347C170.521 37.4929 171.17 37.368 171.189 37.2973C171.33 36.5644 170.888 36.5929 170.519 36.7127C170.305 36.7847 170.109 36.8835 170.044 36.8571C168.717 36.2875 167.992 34.5903 166.338 35.5796C160.76 32.2862 153.679 31.8042 147.225 29.1599C147.141 29.1281 147.412 28.4952 147.244 28.4346C145.233 27.7051 145.444 28.8009 143.875 29.8349C143.475 30.0936 142.671 28.4093 142.592 28.2833C142.314 27.8195 142.822 26.8894 142.72 26.7921C141.858 26.0194 141.524 29.3036 140.25 29.1136C140.211 29.1021 140.469 28.5269 140.37 28.4512C140.062 28.2136 139.699 28.4039 139.407 28.1498C138.737 27.5637 138.683 25.9361 137.419 26.6994C137.257 26.7991 137.219 28.6818 136.086 28.4351C135.646 28.336 133.621 28.0942 133.075 27.9006C132.524 27.7056 132.992 27.1594 132.955 27.1282C131.532 26.1372 132.159 25.8866 131.544 24.6166C130.926 23.3514 130.778 26.1598 130.428 26.4304C130.081 26.7004 129.047 25.9063 128.796 25.6445C128.547 25.3827 128.941 25.0462 128.71 24.8867C128.686 24.8699 128.662 24.854 128.638 24.839C127.183 23.917 127.807 26.1845 127.224 26.5544C125.838 27.4489 125.12 25.2751 123.999 24.9503C123.687 24.8618 123.896 25.3602 123.609 25.3746C122.479 25.4268 121.876 24.7147 120.587 25.1933C120.379 25.2713 119.266 26.4272 118.679 25.4588C118.596 25.3193 118.904 24.8245 118.441 24.6702C117.747 24.4384 116.504 24.2322 115.751 24.356C115.175 24.4462 115.767 25.3407 115.075 25.0299C114.767 24.8917 115.383 24.4301 114.802 24.2122C114.222 23.9933 112.736 23.9334 112.182 23.9257C111.624 23.917 111.896 24.5783 111.851 24.6198C111.555 24.8553 110.451 25.1224 110.357 25.119C105.562 25.02 101.098 23.9454 96.4212 24.583C96.056 24.6326 96.3423 25.2995 96.287 25.3141C95.0635 25.6794 95.9256 23.8029 95.0099 23.2563C95.2357 24.6304 94.6998 24.4138 93.8155 24.6387C93.3932 24.7485 93.672 25.2639 93.6373 25.3219C93.0786 26.1871 92.5565 25.1796 92.4225 24.9759C91.9382 24.2259 91.5691 25.2045 91.2267 24.7083C90.8824 24.2166 91.4661 23.3696 90.6035 23.4733C90.4192 23.993 91.1912 25.2117 90.5727 25.4921C88.2665 26.5257 83.6998 26.2379 81.7419 26.5664C79.8083 26.8696 79.2445 27.1102 78.0831 27.2166C76.012 27.4239 77.0014 28.1598 75.8997 28.9279C74.818 29.7038 74.7272 27.2652 74.4057 26.8292C74.0844 26.3947 74.0464 26.9534 73.7495 26.7524C73.4454 26.554 73.824 26.0743 73.27 26.1364C72.7056 26.1988 71.6043 27.5171 71.5996 28.0842C71.589 29.2814 72.582 30.1834 71.1468 30.25C71.0638 30.2536 71.0966 29.5806 70.7889 29.6242C68.3364 29.9962 65.9764 30.9397 63.5758 31.5842C63.243 31.6731 63.2271 30.9172 63.0293 30.9624C60.9778 31.44 62.1378 32.1864 61.7125 33.8377C61.1716 32.1819 60.1509 31.4978 58.734 32.2162C57.8924 32.6454 58.3883 33.2382 58.0978 33.9924C58.0118 34.2188 57.1828 34.0756 57.2457 34.4448C57.449 35.6532 58.614 36.4926 56.969 36.8041C56.8959 36.8163 56.7854 36.1531 56.5549 36.2361C55.066 36.7725 55.4927 37.9241 54.0943 38.8865C53.0024 39.6393 50.5709 40.1878 49.1834 40.838C48.4973 39.5855 47.7597 39.8482 47.4744 40.6516C47.3793 40.9359 47.3529 41.2897 47.4153 41.6649C46.6112 42.0851 45.8609 42.7181 45.0642 43.1425C44.7892 43.2908 44.5805 42.7327 44.512 42.7109C43.4159 42.391 43.9729 43.6559 43.8703 43.8232C42.6673 45.6598 40.7692 46.4939 40.3962 48.8074C40.383 48.8926 41.4521 49.7139 40.3271 49.6569C40.249 49.655 40.0993 48.7317 39.533 49.5571C38.9705 50.3703 37.404 51.7231 37.3537 53.2788C37.3366 53.6565 37.9669 54.8842 36.9081 55.1614C36.7645 55.1984 36.4528 54.9481 36.2016 54.9834C35.3971 55.1068 36.5522 55.8654 35.2874 55.8801C34.0222 55.8965 32.7922 56.5868 33.0021 58.2437C33.0063 58.2966 33.8877 59.0069 33.7077 59.4277C33.4197 60.0964 32.846 60.9822 32.5852 61.7023C32.4615 62.0446 33.1712 62.0605 33.1606 62.124C32.6544 64.5452 31.5052 66.0019 30.244 68.3226C30.0209 68.7308 30.2565 70.3118 29.2771 70.881C29.2458 70.8988 29.2135 70.9155 29.1799 70.9311C28.0243 71.4957 25.508 69.0301 25.167 71.729C25.0247 72.8905 28.543 75.3446 26.0262 76.3547C25.6827 79.3813 24.6639 82.0976 24.6064 84.9966C24.6006 85.6588 24.8292 85.876 25.0084 86.1962C25.1025 86.3536 26.3555 86.3169 26.4805 86.6098C26.6751 87.0733 26.3219 87.5723 26.4636 87.9202C27.0459 89.3742 28.1704 90.3783 28.8203 91.7488C29.0605 92.2628 28.4768 92.3514 28.7466 92.9678C28.8748 93.2705 29.1556 93.454 29.3851 93.7009C29.4903 93.8496 29.6443 93.9381 29.5885 94.2734C29.5786 94.3472 29.4364 94.4774 29.3258 94.4706C29.2485 94.475 29.1781 94.455 29.1052 94.421C29.0176 94.3753 28.8965 94.275 28.8369 94.1827C28.3926 93.5502 28.9481 91.9863 28.4276 91.2514C27.3782 92.316 26.9482 91.8684 25.8609 91.3278C25.8446 91.3195 25.8283 91.3148 25.8123 91.3132C25.6084 91.2872 25.4404 91.7591 25.3207 91.7199C25.1806 91.6712 25.1068 91.6271 25.0096 91.515C24.9642 91.4623 24.9269 91.4075 24.8948 91.3504C24.8502 91.2757 24.8031 91.1855 24.7664 91.0769C24.7395 90.9999 24.6969 90.8776 24.7054 90.7035C24.7096 90.6281 24.7283 90.4846 24.8182 90.3401C24.9041 90.199 25.0389 90.1 25.1497 90.0528C25.4658 89.9359 25.5992 90.0029 25.6762 90.0026C25.8748 90.0333 25.9664 90.0399 26.1224 90.0165C26.2475 89.9877 26.4391 89.5146 26.5688 89.4739C27.659 89.1094 28.1193 90.6844 28.1866 90.9483C28.4601 91.9688 29.0817 91.5635 29.4152 92.1063C29.7447 92.6491 28.8375 92.5456 29.3012 93.0323C30.2591 94.0405 31.7496 94.8791 32.8523 95.6639C33.2854 95.9708 33.3772 95.2056 33.4478 95.2362C33.8142 95.4157 34.1257 95.7054 34.3961 95.9678L34.3764 95.9275C34.2708 96.5673 33.7784 96.9036 33.9459 97.8821C32.5701 96.7074 32.5996 96.7736 32.5635 97.2928C32.5575 97.784 32.4867 98.7225 31.5403 98.6363C31.3755 98.6215 30.8687 97.0444 31.1533 96.7055C31.4144 96.3745 32.2014 96.5985 32.4031 96.0001C32.4236 95.9341 32.3438 95.4815 32.12 95.125C31.9127 94.7504 31.4949 94.5886 31.4186 94.6223C31.0973 94.6674 30.8505 95.3803 31.0978 96.0259L32.3074 98.4969C32.4662 97.9989 33.1035 96.9286 33.1417 96.8377C33.5714 95.3203 31.6737 96.0671 31.3849 96.0185C29.9994 95.7458 29.2275 94.8604 28.0908 94.6258C27.3505 94.4734 26.476 95.8463 26.0406 95.5423C25.4099 95.1059 25.1554 94.4452 24.9459 93.9675C24.8884 93.846 24.85 93.744 24.8258 93.667C24.8185 93.6303 24.8145 93.6004 24.8454 93.5866C24.8796 93.5708 24.921 93.5785 25.1886 93.6038C25.27 93.5976 25.6222 93.6853 26.3074 93.4868C26.5321 93.4477 27.5652 92.9688 27.9886 92.1097C28.4578 91.146 28.3391 90.7398 28.3172 90.3524C28.2694 89.9933 28.1667 89.7396 28.119 89.6256C28.078 89.5282 28.0412 89.4543 28.0102 89.3946C27.9501 89.2789 27.9012 89.2025 27.8954 89.1806C27.8428 89.0585 27.9386 89.0812 28.0831 89.0759C28.3222 89.1383 28.6067 89.1626 28.9456 89.137C29.4915 89.0854 30.5027 87.6018 30.4159 89.4553C30.4153 89.5153 30.3761 89.9486 30.4153 90.2933C30.4896 90.6712 30.6636 90.9706 31.0081 90.7237C31.0894 90.6575 31.406 90.2477 31.4363 90.216C31.4632 90.1576 31.4832 90.0969 31.0179 89.8776C30.9551 89.8501 30.9103 89.8307 30.8043 89.7916C30.6811 89.7468 30.5326 89.699 30.3472 89.6547C30.1618 89.6108 29.939 89.5697 29.6656 89.5484C29.529 89.5379 29.3797 89.5326 29.2171 89.5363C29.0456 89.5424 28.9171 89.5436 28.5802 89.5949C27.3993 89.6774 25.6721 90.9655 25.2602 91.9498C24.7729 92.8742 24.7326 93.5607 24.7193 93.9976C24.772 95.1834 24.9214 95.1002 24.9316 95.2088C24.9551 95.2548 24.9236 95.2 24.8441 95.1438C24.5051 94.8624 23.8558 94.2669 23.6334 93.5001C23.4955 93.0312 24.0275 92.0045 24.1171 91.6792C24.3824 90.7565 23.0453 90.6384 23.5593 89.8513C24.0854 89.0757 25.5879 89.2333 25.5386 87.9858C24.3248 88.5666 23.0508 89.1077 21.8093 89.6503C21.5933 89.2048 21.3891 88.7455 21.173 88.1669C21.0616 87.8638 20.9636 87.5869 20.8317 87.1154C20.8014 87.004 20.772 86.8876 20.7438 86.7634C20.7097 86.6169 20.6742 86.4468 20.6445 86.2621C20.6034 85.9369 20.4766 85.3461 20.6423 84.331C20.9872 83.1023 21.2999 81.5237 21.5117 79.8346C21.5516 79.5089 20.7859 79.7365 20.8124 79.3772C20.9344 77.8499 21.7094 76.5949 21.9517 74.9593C22.1376 73.6886 21.8779 72.0847 22.2329 70.7289C23.5202 70.5895 24.0212 69.4845 24.5521 68.4345C24.6777 68.1808 24.8041 67.9051 24.954 67.6747C25.1547 67.3631 25.5177 67.5555 25.7546 67.359C26.6318 66.607 25.1867 66.5055 25.1041 66.1601C24.7348 64.6849 27.6323 65.729 28.1273 64.2408C28.1559 64.1605 26.9809 62.6318 26.9346 62.4626C26.6231 61.3955 27.5205 62.5272 27.8313 62.0426C28.3994 61.1548 29.0166 60.6131 29.0013 59.2875C28.9943 58.9013 28.3467 57.722 29.3439 57.3388C29.4743 57.2889 29.9613 57.5333 30.018 57.475C31.0046 56.4038 29.4374 55.7421 29.204 54.7824C28.9715 53.8201 30.5508 53.1254 30.9627 53.0357C32.0313 52.7857 31.1029 53.6481 31.1697 53.715C31.9474 54.5004 32.134 53.6132 32.4942 53.0257C34.0578 53.6189 34.3557 52.7314 32.8632 52.4157C32.6986 52.3835 32.6192 52.9324 32.4942 53.0257C31.241 51.8137 31.5204 50.7015 33.4245 50.3304C34.3189 50.1638 34.8095 51.0051 35.3198 49.407C35.5619 48.683 34.415 48.3759 34.4854 47.6221C34.6611 45.8778 36.7201 44.6984 37.6192 43.2991C37.9516 42.7821 37.0859 42.8572 37.3024 42.4858C37.8931 41.4878 38.919 41.05 39.5735 40.0617C39.6342 39.9703 38.9821 39.6859 39.2432 39.4189C40.8262 37.803 42.6564 36.7226 44.6904 35.7023C45.1005 35.5046 45.5163 35.2916 45.9395 35.0535C46.9397 34.4916 48.5596 33.14 49.6563 32.598C51.551 31.6543 54.3156 31.2061 55.8276 30.1416C56.8258 29.4439 56.2819 28.9877 56.5367 28.3481C57.0367 27.1032 59.3435 27.7019 59.6638 27.8182C59.6718 27.822 58.8009 28.4233 59.4511 28.4807C60.0515 28.9717 59.6539 27.8264 59.6638 27.8182C59.8762 27.8828 61.8247 27.1276 62.1582 26.8447C62.3347 26.6892 61.9627 26.1717 62.0604 26.1012C64.4089 24.4283 67.0491 23.2048 69.8967 22.5465C69.9492 22.542 70.1019 23.2282 70.2201 23.2102C71.8794 22.9795 72.6473 21.8507 73.8453 20.977C75.0558 20.1031 76.1644 19.9951 77.26 20.9603C78.2039 20.5691 79.8212 20.7502 80.6855 20.902C81.572 21.0477 81.4289 19.6926 81.4979 19.651C83.6532 18.359 85.1397 18.9039 87.5503 18.696C88.6965 18.5972 90.9628 18.1438 92.1613 17.8904C93.1203 17.6832 93.7585 17.9522 94.6389 17.6847C94.7569 17.649 94.593 17.0534 94.6281 17.0275C95.5771 16.236 95.1966 17.7468 95.4188 17.9969C96.2243 18.9097 96.716 19.3911 97.971 18.8797C98.25 18.7628 99.0168 16.5975 99.5635 16.4555C100.27 16.2751 100.022 17.0466 100.766 16.8421C100.827 16.8256 100.814 16.3538 101.262 16.365C103.355 16.4107 105.659 16.6869 107.857 16.6877C108.16 16.6897 107.787 15.9333 108.228 15.9244C110.218 15.8813 112.494 16.0051 114.403 16.4673C114.881 16.584 114.547 17.0889 114.643 17.2503C115.225 18.2266 116.238 16.924 116.39 16.9086C119.976 16.4991 122.627 17.9859 126.28 17.8009C126.473 17.7869 128.16 16.5072 128.696 17.8402C128.722 17.9036 128.994 18.6143 129.405 18.7261C129.566 18.7704 129.748 18.7183 129.945 18.4899C129.988 18.4399 129.662 17.7315 130.368 17.8887C131.068 18.045 132.277 17.754 133.158 18.6026C133.43 18.8692 134.009 20.2383 135.062 19.3478C135.122 19.2835 136.881 17.1884 137.168 18.8387C137.216 19.1106 136.89 20.7683 138.123 20.0669C138.358 19.9305 138.027 19.5037 138.616 19.3493C139.511 19.1096 140.589 19.7217 141.752 19.1352C141.959 19.0312 142.909 18.0154 143.409 18.9724C143.488 19.1223 143.213 19.6501 143.538 19.7641C145.058 20.3053 146.794 20.2059 148.329 20.8688C148.88 21.1042 148.43 21.9499 148.979 22.2951C149.517 22.638 150.677 23.0902 151.37 22.8002C152.074 22.512 151.666 20.9535 152.628 21.0231C156.831 21.3444 160.758 23.1089 164.951 24.6506C165.569 24.8827 165.217 24.2076 166.164 24.5334C168.706 25.4142 172.983 26.8875 176.094 29.8117C177.112 30.7708 177.899 31.7869 178.365 32.7117C179.69 35.5559 176.739 33.1809 177.901 35.0943C178.415 35.9806 180.459 36.0022 180.666 36.2327C182.253 37.9195 182.634 39.7524 183.152 41.9311C183.258 42.4017 183.364 42.885 183.478 43.404C183.606 44.0283 184.208 43.3154 184.305 43.8743C184.493 45.8679 184.652 47.9814 182.389 51.6812C181.073 53.307 181.718 53.5506 179.48 54.8336C178.127 55.494 176.64 55.7299 175.465 55.6819C174.881 55.5599 174.064 55.3542 173.241 54.9672C173.143 54.9209 173.821 54.2815 172.993 54.244C171.646 54.1828 169.977 53.6002 168.312 53.8757C167.809 53.9558 167.611 55.1437 166.693 54.1484C166.501 53.9354 167.051 52.5936 165.612 53.5626C165.394 53.7406 162.871 54.8513 162.163 53.4724C161.975 53.1153 161.704 51.7877 161.089 51.7517C161.001 51.7497 161.087 52.4688 160.59 52.3463C158.851 51.9019 157.175 51.0133 155.484 50.2194C155.03 50.0049 155.323 50.9662 154.646 50.6169C152.771 49.6534 150.806 47.875 149.529 46.3278C149.06 45.7596 149.809 45.7234 149.811 45.6427C149.903 44.3656 148.634 44.923 148.38 44.762C146.847 43.7632 146.504 42.3311 145.465 41.147C145.182 40.8178 144.843 41.4268 144.748 41.3879C143.78 40.9421 145.092 40.8696 144.876 40.326C144.845 40.2456 144.812 40.1653 144.779 40.0849C143.906 38.2369 142.99 36.2034 142.48 34.2369C142.286 33.4722 141.757 34.4988 141.595 33.787C141.064 31.3595 141.089 28.8174 141.692 26.3922C141.949 25.4866 142.267 24.3768 142.694 23.2273C142.885 22.7184 143.358 23.1711 143.506 23.0898C144.537 22.5532 143.656 21.1074 143.632 20.7812C143.496 19.3594 144.145 18.9788 144.535 17.7632C145.47 14.7008 148.084 10.8457 151.639 8.70153C154.251 7.07918 156.832 6.03567 159.084 5.24618C165.111 3.20844 169.862 2.80234 175.515 2.01073C175.876 1.96432 175.432 1.26304 175.745 1.21374C179.807 0.616231 183.792 0.817784 187.825 0.768061C188.159 0.765931 187.712 0.0405593 188.242 0.0139904C189.333 -0.0451288 190.72 0.0824285 191.802 0.399019C192.332 0.552371 191.559 1.0945 192.091 1.23691C193.3 1.56846 194.626 1.75844 195.9 1.80322C196.449 1.82205 195.718 1.00276 196.428 1.08442C198.066 1.27008 199.69 1.48554 201.316 1.77625C204.217 2.29598 207.081 2.95911 209.912 4.08636C210.209 4.20449 210.224 5.69603 210.923 5.53536C211.044 5.14357 211.125 4.67196 211.223 4.24768C217.716 5.16883 224.003 6.83615 230.436 8.11082C230.705 8.16402 230.381 7.3138 230.903 7.41278C233.942 7.98901 236.95 8.33265 239.92 9.67348C240.215 9.80534 239.806 11.1192 240.747 11.0847C240.923 11.0795 242.317 11.1545 242.727 10.9292C242.784 10.8943 242.648 10.2201 243.098 10.2852C245.685 10.6695 248.326 11.309 250.809 12.1574C251.213 12.296 250.649 12.8839 250.935 12.9883C252.952 13.7212 255.285 13.6127 257.146 14.5467C258.389 15.1718 257.707 16.2495 258.232 17.5033C258.316 17.6822 259.11 17.8298 259.065 18.5023C258.931 20.1919 258.238 21.9603 258.143 23.7685C258.134 24.1611 259.328 23.9111 258.523 24.7427C258.472 24.7996 257.566 24.979 257.32 25.2621C257.142 25.4571 257.299 26.1736 256.958 26.4056C256.603 26.6349 256.394 26.0213 255.846 26.2675C255.291 26.5159 255.409 27.325 254.411 27.251ZM84.6643 21.6212C85.5336 22.1402 85.2741 19.7587 84.5235 20.4616C84.4877 20.4985 84.6196 21.5962 84.6643 21.6212ZM23.0324 82.5866C24.1968 81.7517 22.748 80.8602 21.8489 81.4668C20.9528 82.0742 22.6794 82.8382 23.0324 82.5866ZM27.1028 92.9949C27.3149 91.6216 24.2632 93.1158 25.4001 93.7854C25.462 93.8196 27.0903 93.0755 27.1028 92.9949ZM254.902 17.2843C254.909 17.318 255.504 17.4515 255.521 17.4223C255.966 16.7277 254.782 16.4624 254.902 17.2843ZM27.1178 92.3538C27.0234 91.7735 25.9097 91.8116 26.0271 92.5074C26.1052 93.0534 27.2218 93.0608 27.1178 92.3538ZM124.091 23.7855C124.103 23.8226 124.526 23.9003 124.538 23.6989C124.583 23.0507 123.956 23.168 124.091 23.7855ZM26.7943 97.0785C28.8555 97.8593 30.6417 100.725 27.4213 99.9525C26.8973 99.7868 28.7683 99.3073 28.1257 98.9266C27.0628 98.2538 25.7806 99.6648 24.9362 98.3941C24.7883 98.1639 26.6792 97.036 26.7995 97.076C26.7978 97.0768 26.796 97.0777 26.7943 97.0785ZM85.5658 24.3856C85.5842 24.4142 86.1959 24.3475 86.1983 24.3159C86.408 23.5136 85.1839 23.6458 85.5658 24.3856ZM148.91 28.7979C148.935 28.8698 150.271 29.1853 150.334 29.1354C151.282 28.0501 148.54 27.3997 148.91 28.7979ZM49.1369 40.8049C49.0072 41.4648 48.6766 41.8931 48.1952 41.933C47.9777 41.94 47.72 41.8557 47.4182 41.6644C47.5812 41.5839 47.7439 41.5023 47.9075 41.4215C48.317 41.2169 48.7226 41.0028 49.1369 40.8049Z" fill="#FF8055"/>
<path d="M4.5343 78.1179C4.94342 78.0448 5.30853 78.4144 5.54156 78.8241C5.61591 78.9519 5.41763 79.3311 5.46112 79.4368C5.54756 79.6435 5.74992 79.4955 5.82568 79.7317C5.84948 79.8118 5.56335 80.4226 5.59309 80.4919C5.76115 80.8683 6.07173 80.7985 6.29653 81.0314C7.39755 82.1772 8.63402 82.8881 9.89113 83.6604C10.3059 83.9145 10.6474 84.6826 11.2002 84.5955C11.2648 84.5847 11.4293 84.0175 11.4558 83.9754C11.8653 83.3312 11.4146 84.4342 11.4676 84.6208C11.4718 84.6355 11.4762 84.65 11.4806 84.6643C11.9869 85.4705 12.5105 85.7897 13.1002 85.8561C13.3556 85.8844 13.7177 84.7459 13.606 85.4366C13.5982 85.4832 13.2398 85.9999 13.2614 86.0888C13.3114 86.2891 13.5936 86.3252 13.6582 86.4225C13.7833 86.6136 13.8105 86.6232 13.9665 86.7292C14.1775 86.8795 14.2538 87.3008 14.5477 87.3272C14.6124 87.332 14.9076 86.757 15.0446 86.7175C15.1843 86.6799 15.3474 86.8573 15.328 87.028C15.3079 87.1982 14.9924 87.5933 14.9381 87.6964C14.4741 88.562 15.4618 87.6042 15.5122 87.5991C16.3553 87.4988 16.3236 88.4332 16.7718 88.7671C17.1146 89.0207 17.6278 89.0928 17.9229 89.3639C18.2748 89.6904 18.3731 90.2071 18.7706 90.4406C18.8116 90.4654 19.231 89.8356 19.2821 89.8648C19.8283 90.1786 20.2597 90.6199 20.4288 91.3964C20.4456 91.4751 19.9764 91.9496 19.969 92.0595C19.9295 92.7185 19.6028 94.1194 21.5388 91.9689C21.6681 92.2107 21.8403 92.4894 21.6655 93.0874C21.554 93.4731 21.0039 93.9614 21.3334 93.8252C21.4072 93.7952 21.7482 93.2603 21.8298 93.2532C22.1702 93.2215 22.2691 93.554 22.6635 93.442C22.7448 93.4182 23.0742 92.9572 23.1469 92.8843C23.7384 92.2956 23.0801 93.5085 23.0556 93.614C22.9575 94.0521 23.0285 94.2215 23.1516 94.319C23.2382 94.3881 23.3566 94.4078 23.4465 94.4809C23.4926 94.5188 23.8733 93.8565 23.9313 93.8691C24.2317 93.946 24.4244 94.1486 24.4871 94.5781C24.5007 94.6755 24.1228 95.205 24.1136 95.2807C24.0841 95.6113 24.7127 94.5606 24.6896 94.8501C24.686 94.91 24.4067 95.3895 24.3817 95.4453C23.9958 96.3245 24.6991 95.1633 24.7262 95.1437C25.118 94.8873 24.6398 96.2276 24.9559 96.1482C24.9924 96.1364 25.2156 95.468 25.2972 95.4723C25.8364 95.4918 26.1809 95.8039 26.5539 96.4398C26.6116 96.5373 26.4733 97.0487 26.4661 97.1134C26.3906 98.1307 26.6615 96.7946 26.6869 96.7464C26.9096 96.4064 27.0323 97.5593 27.2336 95.9453C27.4551 96.142 27.7 96.1578 27.9473 96.1312C28.0729 96.1179 28.2019 96.0941 28.3595 96.0743C28.5367 96.0552 28.6461 96.0353 29.1607 96.0291C29.0975 96.0838 28.9693 96.1921 28.8862 96.3792C28.801 96.5633 28.8018 96.8159 28.9722 96.9967C28.9849 97.0077 29.5092 97.4254 29.5378 97.4386C29.9241 97.5464 29.0426 96.9559 27.8428 96.5213C27.529 96.4465 28.9899 96.9308 29.1079 96.9303C29.5149 97.0194 30.4616 97.3342 30.5424 97.3449C31.1971 97.3501 27.9942 96.5576 28.0017 96.5155C28.0077 96.5135 28.601 96.6423 28.6618 96.646C28.8533 96.6536 28.6212 96.5817 28.8324 96.5838C29.3199 96.5957 30.9197 96.7314 30.0097 96.4623C29.8909 96.4309 28.0277 96.2748 28.1249 96.1657C28.1662 96.1226 28.1456 95.8779 28.2675 95.8038C28.3901 95.7316 28.9918 95.7943 29.018 95.79C29.8184 95.5795 30.1473 95.6662 31.328 95.5434C32.5035 95.4082 29.6993 95.4555 29.3861 95.4108C29.0739 95.3675 29.729 95.1852 29.9565 95.1349C30.1843 95.086 30.5684 95.1338 30.6969 95.0911C31.5362 94.8021 29.3028 95.0085 28.8557 94.9355C27.797 94.7702 29.8698 94.5447 30.0668 94.3443C30.12 94.2905 29.6482 94.3492 29.6023 94.3045C29.4269 94.1261 30.0715 93.996 29.4708 93.7977C29.3729 93.7682 28.1183 93.6144 29.0339 93.4783C29.1659 93.4599 29.6847 93.4971 29.7996 93.4141C29.9718 93.2875 30.0843 93.0695 29.9135 92.9327C29.7872 92.8297 28.9311 92.9322 29.1992 92.8028C29.3192 92.747 29.8156 92.8665 29.9994 92.7649C30.1821 92.6679 30.1745 92.3993 30.168 92.29C30.16 92.1842 29.5102 92.1783 29.4674 92.1663C29.4154 92.1491 29.3614 92.1237 29.3088 92.0938C29.1132 92.0026 28.9334 91.8669 28.9354 91.8542C28.943 91.033 30.1128 90.4153 29.853 89.5876C29.8336 89.5224 29.1508 89.4777 29.1408 89.4669C28.8839 89.2184 30.6641 89.6147 31.2857 89.5462C29.9083 89.3906 30.1683 89.3358 30.037 89.1677C29.9726 89.0864 29.4354 89.0554 29.3818 89.0417C28.5877 88.8278 29.6415 88.8912 29.8575 88.9011C30.6522 88.9361 29.7348 88.7347 30.2661 88.7578C30.7934 88.7814 31.5507 88.9952 31.56 88.8537C31.0739 88.7464 29.7747 88.6761 29.5815 88.5388C28.85 88.0164 29.9721 87.3873 30.1303 87.0769C30.2878 86.7642 30.2162 86.6415 30.426 86.4796C30.8065 86.188 29.8364 86.1499 29.4439 85.8475C29.0526 85.5437 31.3587 86.0893 31.8646 86.1521C32.37 86.2168 31.8617 86.0871 32.1433 86.1029C32.4248 86.1196 32.7497 86.2619 32.8689 86.1982C32.9872 86.1366 32.1455 85.7315 31.6314 85.591C30.541 85.2979 29.3588 85.1708 29.8171 85.0107C29.8442 85.0018 30.4434 85.1762 30.5163 85.1359C30.971 84.8759 31.1418 84.5468 31.475 84.2719C31.5488 84.216 31.6305 84.1602 31.7247 84.109C31.7958 84.0707 32.4538 84.2918 32.5029 84.2707C33.0169 84.047 31.8551 83.8774 30.6379 83.3968C32.3047 83.8458 33.3558 83.9959 33.4267 83.739C33.4695 83.5854 32.7287 83.4423 32.2334 83.2258C32.084 83.1609 32.6128 83.1697 32.2715 83.0719C31.1553 82.7534 29.868 82.5669 30.4277 82.43C30.4542 82.4242 31.0655 82.5972 31.1116 82.567C31.4121 82.3721 30.2346 82.0829 30.1489 81.7842C30.0816 81.5499 30.8852 81.3235 31.055 81.1024C32.952 81.5105 32.5665 81.1872 31.2782 80.8137C31.3658 80.6653 31.329 80.4759 31.5433 80.3594C31.6165 80.3193 32.158 80.4731 32.2188 80.4792C33.1717 80.5781 31.9148 80.2326 31.8725 80.1869C31.4704 79.703 32.5012 79.6135 31.6452 79.0365C31.6143 79.0161 30.3064 78.6894 31.2877 78.8149C31.3552 78.8243 31.9244 79.0833 32.0104 78.9239C32.0969 78.7632 32.875 78.617 32.3275 78.2321C32.1955 78.14 31.1719 77.7239 32.0303 77.8181C32.1468 77.8314 32.5169 77.9444 32.7309 77.9758C32.8549 77.9938 32.9131 77.9961 32.9322 77.989C33.0178 77.9588 32.3094 77.7411 33.2445 77.9064C34.3869 78.1096 35.2746 78.1324 34.5548 77.7081C34.5341 77.6949 33.4967 77.3901 33.5305 77.3211C33.5852 77.2118 33.8429 77.0963 33.864 76.9722C33.8738 76.9125 33.2115 76.8009 33.2019 76.788C32.9244 76.3148 33.5693 76.167 33.9163 75.8001C33.9812 75.7329 33.1376 75.313 33.8766 75.3194C34.6857 75.326 37.8619 76.207 37.1794 75.6637C36.9062 75.4478 32.8755 74.336 35.048 74.5406C34.6467 73.8894 35.8376 73.6632 35.2267 72.9574C35.1996 72.9259 34.0895 72.5624 34.1196 72.5088C34.1664 72.4309 34.7057 72.5216 34.7559 72.4716C34.9795 72.2658 34.5917 71.9162 34.7305 71.6937C34.782 71.6094 35.314 71.7975 35.3753 71.6994C35.4358 71.6027 34.7464 71.3181 35.134 71.2754C35.4292 71.2439 36.9088 71.5919 37.1186 71.5177C36.1122 71.1874 35.849 71.0471 35.6689 70.8873C35.595 70.8206 35.535 70.751 35.443 70.6632C35.3817 70.605 34.876 70.476 34.8216 70.4398C34.5896 70.288 35.019 70.3648 34.7645 70.2066C34.7035 70.1683 34.2209 70.0014 34.144 69.96C33.4725 69.5989 34.6262 69.7871 34.8238 69.8308C35.5792 69.9796 34.9803 69.6881 35.2954 69.707C35.6079 69.7334 35.9017 70.0018 36.1089 69.9757C36.3601 69.9469 36.4715 69.8511 36.5469 69.7417C36.5993 69.6657 36.6334 69.5845 36.6815 69.52C36.7255 69.4561 36.11 69.1588 36.1025 69.1419C36.0529 68.8838 36.7515 69.1437 35.6947 68.2846C38.6478 70.1886 35.4804 67.9933 36.2231 68.1714C36.2829 68.1865 37.6213 69.1692 37.775 69.3706C37.93 69.5699 37.4477 69.3504 37.7064 69.6438C37.7623 69.7193 38.9954 70.6733 39.0745 70.7251C39.6596 71.1761 37.548 69.8751 37.4251 69.8144C36.1229 69.1236 37.4945 70.1048 37.5934 70.1678C37.6728 70.2416 37.7234 70.2973 37.755 70.3427C37.8848 70.526 37.693 70.5517 37.9339 70.7652C38.1274 70.9391 39.6397 71.5355 39.5753 71.5643C39.3607 71.6678 37.1773 71.0471 38.9514 71.9406C39.0871 72.0097 39.3939 72.1189 39.6668 72.2199C40.1545 72.3978 40.5377 72.5379 39.651 72.3702C39.5645 72.3512 38.3033 72.1002 39.0503 72.4211C39.1446 72.461 39.6394 72.6131 39.6772 72.6384C39.9206 72.8041 39.5084 72.7426 39.6699 72.8933C39.8312 73.0444 40.0821 73.2375 39.8822 73.3006C39.7628 73.3375 38.8084 73.1705 38.5712 73.143C37.8884 73.0613 38.9379 73.4544 38.1259 73.3033C37.3087 73.1555 36.1261 72.7083 35.5636 72.7449C36.8634 73.0906 38.1957 73.4526 39.5025 73.802C39.3682 74.1303 38.86 74.3766 38.8313 74.7564C38.8291 74.8036 39.5438 74.9235 39.5597 74.978C39.6239 75.2067 39.0801 75.2707 39.2308 75.5332C39.3503 75.7367 40.0556 76.0896 40.2042 76.3091C38.6779 76.0821 39.1283 76.464 38.9475 76.6303C38.8847 76.689 38.4844 76.5956 38.3426 76.6158C37.8173 76.6944 39.1644 76.9015 39.3621 76.9988C40.2051 77.4167 37.1954 76.7703 37.2114 77.0483C37.2113 77.0626 38.7747 77.591 38.8687 77.6383C39.4847 77.9363 38.3058 77.5384 38.1663 77.6063C37.9109 77.7315 37.5016 77.7645 37.9224 78.0786C38.0471 78.1714 39.0091 78.5503 38.21 78.4915C38.1054 78.4835 37.5797 78.3497 37.5458 78.355C36.9768 78.4593 38.6317 78.8652 39.1583 79.1415C39.6843 79.4202 38.4867 79.3568 38.1475 79.3138C38.087 79.3066 38.0332 79.2995 37.9855 79.2926C37.7618 79.2548 37.6709 79.2266 37.6442 79.2046C37.5961 79.157 37.7745 79.1226 37.7249 79.1059C36.9884 78.8613 36.8838 78.9143 36.8277 78.9939C36.8108 79.0151 36.799 79.0391 36.7725 79.0574C35.1501 78.6565 35.2116 78.8219 36.6666 79.1369C36.8255 79.1713 36.6935 79.0579 36.7725 79.0574C38.3388 79.5496 38.5086 79.7344 36.9807 79.5313C36.2645 79.4371 35.4691 79.1638 35.7084 79.4768C35.8166 79.6183 36.9457 79.8441 37.2284 80.0109C37.8743 80.388 36.7644 80.4247 36.8779 80.6907C36.9194 80.7863 37.5519 80.8444 37.6014 80.9142C37.7352 81.099 37.2447 81.1283 37.4481 81.3313C37.4674 81.3498 38.1187 81.4574 38.1167 81.5059C38.1144 81.8754 37.6345 82.1018 37.5409 82.4861C37.4961 82.6715 37.7797 83.0867 37.6649 83.273C37.4703 83.5957 36.438 83.8283 36.5941 84.1896C36.6926 84.427 37.3452 84.5307 37.7617 84.7233C38.5688 85.0983 36.9739 85.0547 36.7297 85.0347C36.7218 85.0337 36.6154 84.8146 36.2629 84.831C35.5643 84.7182 36.7273 85.0315 36.7297 85.0347C36.5718 85.025 36.3332 85.3561 36.4344 85.4643C36.4902 85.5227 37.1002 85.6598 37.1177 85.6877C37.1428 85.7288 37.1663 85.7697 37.1881 85.8103C37.5832 86.1795 37.6366 86.4959 37.3003 86.7745C37.2866 86.7783 36.6038 86.6291 36.5801 86.6403C36.2324 86.7921 37.0441 87.1 37.5111 87.3668C37.9775 87.6362 37.7863 87.7442 36.5847 87.6534C36.7094 87.8197 36.1523 87.9381 35.8151 88.0093C35.4777 88.0807 36.819 88.3093 36.8439 88.3238C37.6433 88.7826 36.8456 88.853 36.6756 89.1853C36.5925 89.3421 36.7424 89.7 36.866 89.9003C36.9659 90.0588 36.6385 90.1039 36.8235 90.2626C36.8482 90.284 37.4513 90.3432 37.4738 90.3516C38.1738 90.5901 36.714 90.3321 36.4478 90.3292C35.4797 90.3188 34.9624 90.3266 35.3875 90.5753C35.4847 90.6335 37.5854 91.0199 37.6996 91.1139C37.8443 91.2362 37.0901 91.1062 37.261 91.2369C37.2749 91.2479 37.7433 91.3017 37.7147 91.3663C37.5883 91.6663 37.2769 91.9772 37.2881 92.3096C37.2878 92.3547 38.0374 92.3789 38.0493 92.4451C38.0824 92.6294 38.0734 92.8218 37.9811 92.9996C37.9361 92.9505 37.8465 92.943 37.7042 92.9607C37.6151 92.9731 37.0923 92.9419 36.9368 92.9398C35.9952 92.9407 37.36 93.0525 37.3861 93.0579C38.039 93.3305 36.8169 93.7494 37.4266 94.3446C37.4622 94.3734 38.9356 94.6052 37.6826 94.7729C37.5993 94.7853 36.3172 94.9403 37.1982 95.0402C37.2533 95.0472 37.9136 94.9487 37.8487 95.0997C37.7839 95.2484 38.2284 95.5082 37.4989 95.7379C37.269 95.8153 35.9855 95.95 36.9995 96.2119C37.0719 96.2117 39.3628 96.7371 37.7582 96.8028C37.4936 96.8138 35.816 96.6529 36.6505 97.0434C36.8114 97.1235 37.198 97.0378 37.4146 97.2372C37.7463 97.5546 37.2524 97.8734 37.9046 98.4535C38.0249 98.5367 39.0629 99.1764 38.132 99.2879C37.9869 99.3027 37.4682 99.0643 37.3627 99.21C36.8646 99.8608 36.8436 101.042 35.6988 101.956C35.2936 102.261 34.7316 101.507 34.2516 101.691C33.7694 101.886 32.9372 102.286 32.7107 102.888C32.4513 103.511 33.7277 104.488 32.9112 105.024C31.9032 105.637 30.8976 105.884 30.0272 105.94C30.5341 105.873 30.4081 105.834 30.324 105.798C30.2135 105.764 30.0264 105.729 29.8243 105.692C29.4162 105.62 28.9464 105.538 28.4886 105.528C28.3012 105.522 28.4921 106.031 28.2094 106.058C27.1801 106.189 25.1854 106.49 24.5811 105.211C24.135 104.211 25.0524 103.722 24.6795 103.271C24.5169 103.058 23.8717 104.633 23.7929 104.667C23.1061 105.039 22.9619 104.204 22.4478 104.26C22.3392 104.271 22.1918 104.946 22.0991 104.946C21.7709 104.95 21.6088 104.554 21.3322 104.494C21.2089 104.469 21.0197 104.957 20.9314 104.873C20.7196 104.679 20.5907 104.374 20.589 103.825C20.5899 103.776 21.0123 103.26 20.8601 103.157C20.6034 102.986 20.5357 102.401 20.0071 102.673C19.8512 102.756 19.243 103.785 19.4769 102.965C19.5256 102.793 20.3123 101.594 19.4667 102.53C19.3351 102.692 18.0813 103.88 18.4926 102.861C18.6024 102.594 19.1442 101.546 18.9527 101.639C18.9236 101.655 18.6162 102.221 18.5035 102.22C18.1184 102.204 17.8926 101.974 17.5214 101.919C17.5107 101.919 17.4999 101.919 17.4889 101.919C17.4013 101.923 17.0879 102.517 16.9697 102.505C16.6439 102.472 16.4662 102.128 16.3742 101.799C16.3413 101.677 16.7272 101.279 16.7573 101.227C17.2502 100.38 16.4054 101.388 16.3277 101.425C15.8577 101.645 16.0865 101.044 15.8117 101.04C15.7368 101.037 15.3917 101.562 15.3482 101.599C14.9168 101.956 15.6735 101.118 15.6855 100.972C15.7219 100.558 15.4955 100.448 15.2698 100.375C15.1864 100.349 14.8167 100.981 14.7469 100.951C14.3243 100.784 14.0092 100.452 13.9251 99.8799C13.9095 99.7707 14.292 99.3597 14.3573 99.2487C14.816 98.4734 13.9379 99.3347 13.8367 99.4031C13.3762 99.7165 13.6251 99.2835 13.449 99.2634C12.5807 99.1695 12.0766 98.3605 11.6715 97.7926C11.1441 97.0574 10.9399 96.2335 10.2415 95.8955C10.1981 95.874 9.79957 96.504 9.7571 96.4936C9.23029 96.3327 8.99127 95.8121 8.51499 95.7601C8.47747 95.7553 8.13542 96.3739 8.06427 96.3875C7.9159 96.4195 7.83176 96.3217 7.86833 96.0808C7.88487 95.964 8.25156 95.4784 8.25996 95.3704C8.28066 95.1181 8.20259 95.0152 8.06825 95.0706C8.01162 95.0963 7.71322 95.7551 7.67104 95.7417C7.5066 95.6986 7.41214 95.7333 7.5954 95.6486C7.33721 95.449 7.11461 95.1522 6.94871 94.6804C6.92151 94.6026 7.36918 93.2059 7.17242 93.4344C7.02855 93.8151 6.86886 94.2662 6.71993 94.6748C5.61941 94.5326 4.77984 93.6933 3.7848 93.253C3.7425 93.2345 3.55516 93.9925 3.47198 93.9604C2.99207 93.776 2.45135 93.8103 2.21833 92.9057C2.19477 92.8169 2.68268 91.5402 2.4691 91.6829C2.43247 91.7098 2.15051 91.8018 1.99522 92.0612C1.97239 92.1005 1.7955 92.7147 1.71932 92.707C1.27855 92.6509 0.90088 92.3595 0.628598 91.8463C0.583976 91.7619 0.886105 91.149 0.856461 91.0834C0.647765 90.6242 0.112685 90.9793 0.00698328 90.2846C-0.0636022 89.817 0.417596 88.7427 0.699614 87.6154C0.739834 87.4566 0.618095 87.3847 0.841141 86.7503C1.40245 85.1552 2.09964 83.4387 2.69035 81.7357C2.8165 81.3685 2.50369 81.6995 2.92524 80.8546C2.95238 80.7977 3.18851 80.5524 3.32601 80.2637C3.42254 80.0647 3.61814 79.4082 3.75796 79.1593C3.89724 78.9106 3.7526 79.468 3.93638 79.1827C4.12276 78.894 4.35967 78.1523 4.5343 78.1179ZM34.3073 88.3453C33.6437 88.3658 36.0081 88.7334 35.4603 88.526C35.431 88.5155 34.3399 88.344 34.3073 88.3453ZM37.1069 73.9522C36.0445 73.8553 37.529 74.3204 38.3468 74.4053C39.163 74.493 37.4287 73.9829 37.1069 73.9522ZM36.7637 72.2238C35.9137 72.1702 39.1739 73.1106 38.562 72.7549C38.5274 72.7346 36.813 72.2273 36.7637 72.2238ZM1.33212 87.4953C1.3414 87.4648 1.25906 87.402 1.24533 87.4305C0.935813 88.1266 1.10234 88.2524 1.33212 87.4953ZM36.4462 70.4777C35.9959 70.3716 36.4414 70.7012 37.0024 70.8267C37.4519 70.9318 37.0036 70.6164 36.4462 70.4777ZM31.2339 94.2987C31.1984 94.3019 31.1687 94.3745 31.3701 94.3662C32.0187 94.3389 31.8322 94.2456 31.2339 94.2987ZM37.7279 68.3234C37.3841 68.5419 35.0061 67.0336 35.5617 66.8435C35.6604 66.8121 36.1412 67.5493 36.4075 67.6212C36.8855 67.7612 35.6088 66.5428 36.4652 66.9876C36.6192 67.0722 37.7505 68.3168 37.7304 68.3264C37.7296 68.3254 37.7287 68.3244 37.7279 68.3234ZM31.4547 87.9888C31.423 87.9865 31.3788 88.0801 31.4095 88.0871C32.1532 88.2502 32.2423 88.0642 31.4547 87.9888ZM29.4541 97.436C29.4051 97.3891 29.3688 97.3374 29.3997 97.3912C29.9144 98.5411 30.3915 98.3668 29.4541 97.436ZM31.1065 81.1093C30.3814 80.845 30.3204 80.6989 31.2771 80.814C31.2048 80.9091 31.1749 81.0135 31.1065 81.1093Z" fill="#FF8055"/>
</svg>
