<svg width="26" height="26" viewBox="0 0 26 26" fill="none" xmlns="http://www.w3.org/2000/svg">
<g clip-path="url(#clip0_1038_109)">
<path d="M9.61982 3.20657C10.4126 3.20657 11.1875 3.44165 11.8467 3.88209C12.5058 4.32252 13.0196 4.94853 13.323 5.68094C13.6263 6.41335 13.7057 7.21928 13.5511 7.9968C13.3964 8.77433 13.0146 9.48853 12.4541 10.0491C11.8935 10.6097 11.1793 10.9914 10.4018 11.1461C9.62426 11.3007 8.81834 11.2214 8.08592 10.918C7.35351 10.6146 6.72751 10.1009 6.28707 9.4417C5.84664 8.78255 5.61156 8.00759 5.61156 7.21483C5.61156 6.15178 6.03386 5.13226 6.78555 4.38057C7.53725 3.62887 8.55676 3.20657 9.61982 3.20657ZM9.61982 1.60327C8.50996 1.60327 7.42502 1.93238 6.5022 2.54899C5.57939 3.1656 4.86014 4.042 4.43541 5.06738C4.01069 6.09276 3.89956 7.22106 4.11608 8.30959C4.3326 9.39813 4.86705 10.398 5.65184 11.1828C6.43664 11.9676 7.43652 12.502 8.52506 12.7186C9.61359 12.9351 10.7419 12.824 11.7673 12.3992C12.7926 11.9745 13.6691 11.2553 14.2857 10.3324C14.9023 9.40963 15.2314 8.32469 15.2314 7.21483C15.2314 5.72655 14.6402 4.29923 13.5878 3.24686C12.5354 2.19449 11.1081 1.60327 9.61982 1.60327ZM17.6363 24.0495H16.033V20.0413C16.033 18.9782 15.6107 17.9587 14.859 17.207C14.1073 16.4553 13.0878 16.033 12.0248 16.033H7.21486C6.15181 16.033 5.13229 16.4553 4.3806 17.207C3.6289 17.9587 3.20661 18.9782 3.20661 20.0413V24.0495H1.6033V20.0413C1.6033 18.553 2.19452 17.1257 3.24689 16.0733C4.29926 15.0209 5.72658 14.4297 7.21486 14.4297H12.0248C13.5131 14.4297 14.9404 15.0209 15.9927 16.0733C17.0451 17.1257 17.6363 18.553 17.6363 20.0413V24.0495ZM20.0413 12.9707L17.965 10.8944L16.8347 12.0247L20.0413 15.2313L25.6528 9.61979L24.5225 8.48946L20.0413 12.9707Z" fill="#F05A28"/>
</g>
<defs>
<clipPath id="clip0_1038_109">
<rect width="25.6529" height="25.6529" fill="white"/>
</clipPath>
</defs>
</svg>
