<svg width="20" height="20" viewBox="0 0 20 20" fill="none" xmlns="http://www.w3.org/2000/svg">
<path d="M4.69878 15.0791V6.74561H10.9488V8.82911H13.8658L15.9488 6.74561H18.2408C18.517 6.74561 18.7819 6.85533 18.9772 7.05065C19.1725 7.24597 19.2823 7.51088 19.2823 7.78711V18.2041C19.2823 18.4803 19.1725 18.7452 18.9772 18.9406C18.7819 19.1359 18.517 19.2456 18.2408 19.2456H2.61578C2.33948 19.2499 2.0651 19.1992 1.8086 19.0964C1.55209 18.9936 1.3186 18.8409 1.1217 18.647C0.9248 18.4531 0.768432 18.222 0.661699 17.9671C0.554966 17.7122 0.5 17.4387 0.5 17.1624C0.5 16.886 0.554966 16.6125 0.661699 16.3576C0.768432 16.1027 0.9248 15.8716 1.1217 15.6777C1.3186 15.4839 1.55209 15.3311 1.8086 15.2283C2.0651 15.1255 2.33948 15.0748 2.61578 15.0791M4.69878 15.0791H2.61578M4.69878 15.0791V3.62061H2.61578C2.0632 3.62061 1.53325 3.84012 1.14252 4.23085C0.751786 4.62158 0.532275 5.15153 0.532275 5.70411V17.1621C0.532408 16.6096 0.751977 16.0798 1.14269 15.6892C1.53341 15.2985 2.06328 15.0791 2.61578 15.0791" stroke="#F05A28" stroke-linecap="round" stroke-linejoin="round"/>
<path d="M18.9803 2.25567L17.5218 0.797671C17.3271 0.606871 17.0654 0.5 16.7928 0.5C16.5202 0.5 16.2585 0.606871 16.0638 0.797671L10.9488 5.91267V8.82917H13.8658L18.9803 3.71417C19.1711 3.51949 19.278 3.25776 19.278 2.98517C19.278 2.71258 19.1711 2.45035 18.9803 2.25567Z" stroke="#F05A28" stroke-linecap="round" stroke-linejoin="round"/>
</svg>
