<svg width="25" height="25" viewBox="0 0 25 25" fill="none" xmlns="http://www.w3.org/2000/svg">
<path d="M15.7377 22.8157V21.7693C15.742 21.4956 15.8537 21.2345 16.0486 21.0423C16.2435 20.8501 16.5062 20.7421 16.7799 20.7416H16.8577C18.3428 20.7292 19.6184 19.6983 19.9212 18.2651L19.9316 18.2111L20.4709 15.5562L21.4457 15.075C21.9695 14.8178 22.2298 14.6882 22.2858 14.4528C22.3428 14.2163 22.1675 13.9861 21.818 13.5246L19.8393 10.9236C19.6422 10.6643 19.5437 10.5357 19.4919 10.3988C19.44 10.2619 19.4224 10.067 19.3902 9.68014C19.0335 5.42086 15.4162 2.07422 11.0055 2.07422C6.35937 2.07422 2.59271 5.78903 2.59271 10.3708C2.59271 13.2228 4.05188 15.7377 6.27433 17.2311M6.27433 17.2311V22.8157M6.27433 17.2311C6.92322 17.6698 7.63096 18.0144 8.37649 18.2547" stroke="#F05A28" stroke-width="1.5" stroke-linecap="round" stroke-linejoin="round"/>
<path d="M14.5191 9.33371L15.4732 10.1561C15.8745 10.5015 16.0747 10.6746 16.0747 10.8893C16.0747 11.104 15.8745 11.2772 15.4732 11.6225L14.5191 12.4449M7.25953 9.33371L6.30542 10.1561C5.90407 10.5015 5.70392 10.6746 5.70392 10.8893C5.70392 11.104 5.90407 11.2772 6.30542 11.6225L7.25953 12.4449M11.9264 8.29663L9.85222 13.482" stroke="#F05A28" stroke-width="1.5" stroke-linecap="round" stroke-linejoin="round"/>
</svg>
