<svg width="25" height="25" viewBox="0 0 25 25" fill="none" xmlns="http://www.w3.org/2000/svg">
<g clip-path="url(#clip0_1038_137)">
<path d="M5.40521 12.6844L7.95729 13.7646C8.28021 13.1181 8.63195 12.4924 9.0125 11.8875C9.39306 11.2827 9.8132 10.6945 10.2729 10.123L8.67396 9.8167C8.56701 9.78962 8.46354 9.79275 8.36354 9.82608C8.26354 9.85941 8.17326 9.91601 8.09271 9.99587L5.40521 12.6844ZM8.78229 14.425L11.7302 17.3688C12.5531 16.9973 13.3812 16.525 14.2146 15.9521C15.0479 15.3792 15.8493 14.708 16.6187 13.9386C17.7403 12.8171 18.5972 11.6209 19.1896 10.35C19.7819 9.07921 20.1149 7.61184 20.1885 5.94796C18.5247 6.02157 17.0594 6.35455 15.7927 6.94691C14.5274 7.53927 13.3337 8.39622 12.2115 9.51775C11.4427 10.2872 10.7719 11.0917 10.199 11.9313C9.62604 12.7709 9.15382 13.6021 8.78229 14.425ZM13.7198 10.8511C13.7198 10.4226 13.8726 10.0556 14.1781 9.75004C14.4844 9.44448 14.8559 9.29171 15.2927 9.29171C15.7295 9.29171 16.1007 9.44448 16.4062 9.75004C16.7118 10.0556 16.8646 10.4226 16.8646 10.8511C16.8646 11.2796 16.7118 11.6462 16.4062 11.9511C16.1007 12.2559 15.7292 12.4087 15.2917 12.4094C14.8542 12.4101 14.4833 12.2573 14.1792 11.9511C13.875 11.6448 13.7222 11.2782 13.7208 10.8511M13.451 20.7511L16.1396 18.0636C16.2194 17.983 16.2764 17.8927 16.3104 17.7927C16.3438 17.6927 16.3472 17.5893 16.3208 17.4823L16.0135 15.8834C15.442 16.3431 14.8538 16.7622 14.249 17.1407C13.6441 17.5191 13.0184 17.8698 12.3719 18.1927L13.451 20.7511ZM21.1625 4.98962C21.2792 6.90351 21.0083 8.66393 20.35 10.2709C19.6924 11.8785 18.6681 13.3778 17.2771 14.7688L17.0958 14.949L16.9156 15.1292L17.3365 17.2667C17.3927 17.5473 17.3823 17.8191 17.3052 18.0823C17.2274 18.3455 17.0872 18.5785 16.8844 18.7813L13.0906 22.5552L11.3635 18.4875L7.65104 14.775L3.58333 13.0282L7.35104 9.2542C7.55382 9.05143 7.78785 8.90802 8.05313 8.824C8.3184 8.73997 8.59132 8.72608 8.87188 8.78233L11.049 9.22191C11.1156 9.15525 11.1722 9.09518 11.2188 9.0417C11.2653 8.98823 11.3222 8.92816 11.3896 8.8615C12.7812 7.46983 14.2795 6.44761 15.8844 5.79483C17.4892 5.14205 19.2479 4.87365 21.1625 4.98962ZM5.33021 17.8407C5.73785 17.4337 6.23299 17.2323 6.81563 17.2365C7.39826 17.2407 7.8934 17.4469 8.30104 17.8552C8.70868 18.2636 8.91146 18.7587 8.90938 19.3407C8.90729 19.924 8.70243 20.4191 8.29479 20.8261C7.94063 21.1802 7.37292 21.4834 6.59167 21.7355C5.81042 21.9875 4.9059 22.1618 3.87813 22.2584C3.97465 21.2306 4.15243 20.3261 4.41146 19.5448C4.67049 18.7636 4.97674 18.1955 5.33021 17.8407ZM6.07396 18.598C5.87326 18.7986 5.68611 19.1257 5.5125 19.5792C5.33889 20.0327 5.22431 20.5004 5.16875 20.9823C5.65069 20.9261 6.1184 20.8087 6.57188 20.6302C7.02465 20.4525 7.35139 20.2632 7.55208 20.0625C7.76042 19.8542 7.86667 19.6059 7.87083 19.3177C7.87431 19.0289 7.77188 18.7802 7.56354 18.5719C7.35521 18.3636 7.10694 18.2639 6.81875 18.273C6.53056 18.2813 6.28229 18.3896 6.07396 18.598Z" fill="#F05A28"/>
</g>
<defs>
<clipPath id="clip0_1038_137">
<rect width="25" height="25" fill="white"/>
</clipPath>
</defs>
</svg>
